HIERARCHY
ROOT Hips
{
	OFFSET -14.64140 90.27770 -84.91600
	CHANNELS 6 Xposition Yposition Zposition Zrotation Xrotation Yrotation
	JOINT Spine
	{
		OFFSET 0.00000 13.20850 -1.60436
		CHANNELS 3 Zrotation Xrotation Yrotation
		JOINT Spine1
		{
			OFFSET 0.00000 8.61716 0.00000
			CHANNELS 3 Zrotation Xrotation Yrotation
			JOINT Spine2
			{
				OFFSET 0.00000 8.61717 0.00000
				CHANNELS 3 Zrotation Xrotation Yrotation
				JOINT Spine3
				{
					OFFSET 0.00000 8.61717 0.00000
					CHANNELS 3 Zrotation Xrotation Yrotation
					JOINT Neck
					{
						OFFSET 0.00000 11.07920 1.10792
						CHANNELS 3 Zrotation Xrotation Yrotation
						JOINT Neck1
						{
							OFFSET 0.00000 7.08032 0.00000
							CHANNELS 3 Zrotation Xrotation Yrotation
							JOINT Head
							{
								OFFSET 0.00000 7.08031 0.00000
								CHANNELS 3 Zrotation Xrotation Yrotation
								End site
								{
									OFFSET 0.00000 0.00000 0.00000
								}
							}
						}
					}
					JOINT RightShoulder
					{
						OFFSET -0.01000 7.91373 5.19711
						CHANNELS 3 Zrotation Xrotation Yrotation
						JOINT RightArm
						{
							OFFSET -18.41580 0.00000 0.00000
							CHANNELS 3 Zrotation Xrotation Yrotation
							JOINT RightForeArm
							{
								OFFSET -29.11090 0.00000 0.00000
								CHANNELS 3 Zrotation Xrotation Yrotation
								JOINT RightHand
								{
									OFFSET -24.65040 0.00000 0.00000
									CHANNELS 3 Zrotation Xrotation Yrotation
									JOINT RightHandThumb1
									{
										OFFSET -5.35114 -0.85590 3.97906
										CHANNELS 3 Zrotation Xrotation Yrotation
										JOINT RightHandThumb2
										{
											OFFSET -4.52789 0.00000 0.00000
											CHANNELS 3 Zrotation Xrotation Yrotation
											JOINT RightHandThumb3
											{
												OFFSET -2.46976 0.00000 0.00000
												CHANNELS 3 Zrotation Xrotation Yrotation
												End site
												{
													OFFSET 0.00000 0.00000 0.00000
												}
											}
										}
									}
									JOINT RightHandIndex1
									{
										OFFSET -14.26970 0.00000 2.88139
										CHANNELS 3 Zrotation Xrotation Yrotation
										JOINT RightHandIndex2
										{
											OFFSET -5.48836 0.00000 0.00000
											CHANNELS 3 Zrotation Xrotation Yrotation
											JOINT RightHandIndex3
											{
												OFFSET -3.01859 0.00000 0.00000
												CHANNELS 3 Zrotation Xrotation Yrotation
												End site
												{
													OFFSET 0.00000 0.00000 0.00000
												}
											}
										}
									}
									JOINT RightHandMiddle1
									{
										OFFSET -14.26970 0.00000 -0.09147
										CHANNELS 3 Zrotation Xrotation Yrotation
										JOINT RightHandMiddle2
										{
											OFFSET -6.17441 0.00000 0.00000
											CHANNELS 3 Zrotation Xrotation Yrotation
											JOINT RightHandMiddle3
											{
												OFFSET -3.56743 0.00000 0.00000
												CHANNELS 3 Zrotation Xrotation Yrotation
												End site
												{
													OFFSET 0.00000 0.00000 0.00000
												}
											}
										}
									}
									JOINT RightHandRing1
									{
										OFFSET -12.69180 0.00000 -3.06433
										CHANNELS 3 Zrotation Xrotation Yrotation
										JOINT RightHandRing2
										{
											OFFSET -5.62556 0.00000 0.00000
											CHANNELS 3 Zrotation Xrotation Yrotation
											JOINT RightHandRing3
											{
												OFFSET -3.56744 0.00000 0.00000
												CHANNELS 3 Zrotation Xrotation Yrotation
												End site
												{
													OFFSET 0.00000 0.00000 0.00000
												}
											}
										}
									}
									JOINT RightHandPinky1
									{
										OFFSET -11.11390 0.00000 -6.03719
										CHANNELS 3 Zrotation Xrotation Yrotation
										JOINT RightHandPinky2
										{
											OFFSET -4.52789 0.00000 0.00000
											CHANNELS 3 Zrotation Xrotation Yrotation
											JOINT RightHandPinky3
											{
												OFFSET -2.46976 0.00000 0.00000
												CHANNELS 3 Zrotation Xrotation Yrotation
												End site
												{
													OFFSET 0.00000 0.00000 0.00000
												}
											}
										}
									}
								}
							}
						}
					}
					JOINT LeftShoulder
					{
						OFFSET 0.01000 7.91373 5.19711
						CHANNELS 3 Zrotation Xrotation Yrotation
						JOINT LeftArm
						{
							OFFSET 18.41580 0.00000 0.00000
							CHANNELS 3 Zrotation Xrotation Yrotation
							JOINT LeftForeArm
							{
								OFFSET 29.11090 0.00000 0.00000
								CHANNELS 3 Zrotation Xrotation Yrotation
								JOINT LeftHand
								{
									OFFSET 24.65040 0.00000 0.00000
									CHANNELS 3 Zrotation Xrotation Yrotation
									JOINT LeftHandThumb1
									{
										OFFSET 5.35114 -0.85590 3.97906
										CHANNELS 3 Zrotation Xrotation Yrotation
										JOINT LeftHandThumb2
										{
											OFFSET 4.52789 0.00000 0.00000
											CHANNELS 3 Zrotation Xrotation Yrotation
											JOINT LeftHandThumb3
											{
												OFFSET 2.46977 0.00000 0.00000
												CHANNELS 3 Zrotation Xrotation Yrotation
												End site
												{
													OFFSET 0.00000 0.00000 0.00000
												}
											}
										}
									}
									JOINT LeftHandIndex1
									{
										OFFSET 14.26970 0.00000 2.88139
										CHANNELS 3 Zrotation Xrotation Yrotation
										JOINT LeftHandIndex2
										{
											OFFSET 5.48836 0.00000 0.00000
											CHANNELS 3 Zrotation Xrotation Yrotation
											JOINT LeftHandIndex3
											{
												OFFSET 3.01859 0.00000 0.00000
												CHANNELS 3 Zrotation Xrotation Yrotation
												End site
												{
													OFFSET 0.00000 0.00000 0.00000
												}
											}
										}
									}
									JOINT LeftHandMiddle1
									{
										OFFSET 14.26970 0.00000 -0.09147
										CHANNELS 3 Zrotation Xrotation Yrotation
										JOINT LeftHandMiddle2
										{
											OFFSET 6.17440 0.00000 0.00000
											CHANNELS 3 Zrotation Xrotation Yrotation
											JOINT LeftHandMiddle3
											{
												OFFSET 3.56744 0.00000 0.00000
												CHANNELS 3 Zrotation Xrotation Yrotation
												End site
												{
													OFFSET 0.00000 0.00000 0.00000
												}
											}
										}
									}
									JOINT LeftHandRing1
									{
										OFFSET 12.69180 0.00000 -3.06433
										CHANNELS 3 Zrotation Xrotation Yrotation
										JOINT LeftHandRing2
										{
											OFFSET 5.62556 0.00000 0.00000
											CHANNELS 3 Zrotation Xrotation Yrotation
											JOINT LeftHandRing3
											{
												OFFSET 3.56744 0.00000 0.00000
												CHANNELS 3 Zrotation Xrotation Yrotation
												End site
												{
													OFFSET 0.00000 0.00000 0.00000
												}
											}
										}
									}
									JOINT LeftHandPinky1
									{
										OFFSET 11.11390 0.00000 -6.03719
										CHANNELS 3 Zrotation Xrotation Yrotation
										JOINT LeftHandPinky2
										{
											OFFSET 4.52789 0.00000 0.00000
											CHANNELS 3 Zrotation Xrotation Yrotation
											JOINT LeftHandPinky3
											{
												OFFSET 2.46976 0.00000 0.00000
												CHANNELS 3 Zrotation Xrotation Yrotation
												End site
												{
													OFFSET 0.00000 0.00000 0.00000
												}
											}
										}
									}
								}
							}
						}
					}
					JOINT pCube4
					{
						OFFSET 0.00000 10.91090 1.10792
						CHANNELS 3 Zrotation Xrotation Yrotation
						End site
						{
							OFFSET 0.00000 0.00000 0.00000
						}
					}
				}
			}
		}
	}
	JOINT RightUpLeg
	{
		OFFSET -9.98441 0.00000 0.00000
		CHANNELS 3 Zrotation Xrotation Yrotation
		JOINT RightLeg
		{
			OFFSET 0.00000 -42.11790 0.00000
			CHANNELS 3 Zrotation Xrotation Yrotation
			JOINT RightFoot
			{
				OFFSET 0.00000 -45.00020 -0.00001
				CHANNELS 3 Zrotation Xrotation Yrotation
				JOINT RightForeFoot
				{
					OFFSET 0.00000 -3.74820 0.00000
					CHANNELS 3 Zrotation Xrotation Yrotation
					JOINT RightToeBase
					{
						OFFSET 0.00000 0.06325 14.43120
						CHANNELS 3 Zrotation Xrotation Yrotation
						End site
						{
							OFFSET 0.00000 0.00000 0.00000
						}
					}
				}
			}
		}
	}
	JOINT LeftUpLeg
	{
		OFFSET 9.98441 0.00000 0.00000
		CHANNELS 3 Zrotation Xrotation Yrotation
		JOINT LeftLeg
		{
			OFFSET 0.00000 -42.11800 0.00000
			CHANNELS 3 Zrotation Xrotation Yrotation
			JOINT LeftFoot
			{
				OFFSET 0.00000 -45.00070 0.00000
				CHANNELS 3 Zrotation Xrotation Yrotation
				JOINT LeftForeFoot
				{
					OFFSET 0.00000 -3.74824 0.00000
					CHANNELS 3 Zrotation Xrotation Yrotation
					JOINT LeftToeBase
					{
						OFFSET 0.00000 0.06325 14.43110
						CHANNELS 3 Zrotation Xrotation Yrotation
						End site
						{
							OFFSET 0.00000 0.00000 0.00000
						}
					}
				}
			}
		}
	}
}
MOTION
Frames: 4
Frame Time: 0.050000
0.013516695658161139 -0.02983776708488818 0.026767353973143972 0.046457973590965866 -0.0074699212855177805 0.01281880205751605 -4.194242287116022 5.871618295932931 -0.5783115404105283 -0.6068421587285838 3.2234764983307453 0.35330064713509385 -0.7197862223669161 -0.48925100187999243 -1.7015885006818658 -1.2012887434376225 0.1523039464394772 -0.9490972343573686 -1.8396336341783104 9.704189305257332 4.003176353137028 -0.3575501829635089 -1.1281061377353165 7.116099664709673 -1.4995916106034455 -15.607311100301109 0.6762165090796558 4.149333612832539 -0.296955597299992 -10.12079488872903 65.56267794781039 7.390450061695766 22.374301137681652 46.64348348719795 18.047086803288327 103.0226907530491 26.5392155120765 0.07794124155633937 -11.021203944697401 4.487724485505871 -0.13438509774358068 -1.5487579050225173 -0.027627908909540193 -0.03739264471115042 -56.20415446765078 0.003550448664838674 0.046900948297813036 -56.249030825805896 -38.76850871740522 0.046313842145165665 -0.0141238188624836 -0.0485532826691666 0.04756743443022253 0.016579033190143522 -0.0427081030290732 0.046710382518665626 -0.0035183525098644464 -36.692624133030996 -0.007205946763442592 0.049431876346188446 -0.04308696912905169 -0.021576968542024046 0.024030550123518058 -0.040748158659560337 -0.007427533543688672 0.007390238844197191 -19.719142259213644 0.013297550491110808 -0.045532474930483395 -0.0016393284576831598 -0.017788584045698056 0.04663567229884137 -0.005440775585715017 0.020338572851174658 -0.04606634539507286 24.07165310886438 0.005412718827784961 -0.012618591573342355 28.912844776877723 -0.02651874721025 0.011952137583480807 28.828674578110583 0.02323633314836834 -0.03511499150099943 1.8199407672830903 0.8395522499991237 9.334391998305943 -64.92320555972492 12.812822713658244 -31.443708901541182 -85.12137009216659 12.044788738014642 -120.63318001068471 -31.974131762581 -5.502253350812989 3.2044255123379375 -0.4583626400243917 0.07732097902078056 -8.136640277316012 0.021758109356411197 0.0040408944169655625 44.56806663257999 -0.007338909978897027 0.01619844464677827 44.52757020187894 12.46817742709011 0.024531117419780306 -0.01294865697954332 -0.01599218718261746 -0.012489807028612203 -0.000519129995946939 -0.014938139936404351 0.00675106387424383 -0.010931926666295964 11.1315963332843 -0.0290811467765079 -0.024745089893250034 -0.007599440024611546 -0.02075528520755818 0.005715970088089789 -0.0028214627773184456 -0.022198546038324305 0.02835351170844652 4.804192328021156 -0.019755400158033523 -0.045106620155744376 -0.0026114177949990124 -0.024220403090564148 -0.005689106186855771 0.003913900046686149 0.007881715176318482 0.015591836787559979 -5.642518167450391 -0.030494643511090568 -0.0036670065066888883 -6.749127938779955 0.014743130521593335 0.03700012163835477 -6.704936793524794 -0.02425850038025652 0.014591780913109717 0.026629137326964675 0.0050309881522634355 0.02547343138757425 8.051810434661679 3.5042271309300372 -19.187846992963735 0.017543191446050446 10.427050114419268 -0.005036765956578374 -5.582740179293488 -15.670460379196651 3.21819690858896 -0.0003776727155916287 0.01862985409063269 -0.008316152209597846 -0.020884522196667893 4.736046881780644 -0.030370349457943605 12.42042027227438 -8.221286796289867 6.858260385911584 -0.00942761461954796 46.331494639084816 0.038244306355103626 -4.353350893314692 -14.749073731492397 -3.833801488812998 0.017012874366269557 -0.04413964449433541 0.009409494555304196 0.035390081563710866 -10.75027003993465 -0.011074896238043632 
0.042243586429911995 -0.019125484947288413 -0.01959428436262524 0.008194872678495562 0.005205229087577798 0.003359690407678641 -3.963867406516015 5.574497420148102 -0.6392594167431077 -0.598337095205712 3.262188920547563 0.3614338968775869 -0.6856332250804659 -0.5856464660414347 -1.6592108765536404 -1.2115525611967044 0.09308202350744907 -0.9447168797273933 -1.8628034478385904 9.820835119880028 3.983501159398294 -0.36034791644118275 -1.21660709332137 7.228264029449243 -1.4016346699317497 -15.750551179220125 0.6403390997154127 3.8257059367754476 -0.2160036848160981 -10.213464901506994 66.33597563528721 8.263491557016295 21.64546821588354 47.79240997541139 18.78075626044954 102.75402178595586 26.173941261768466 0.04441716030309782 -11.12543861811584 4.511813915949751 -0.13041681963505583 -1.5649750077255284 0.025653385402682805 -0.02888444814386274 -56.24643498104011 0.03552735999738266 -0.011770509111522096 -56.19043035044865 -38.73815452698801 -0.01985175570179045 -0.03187639708319148 0.016133414465454504 0.010604583566220403 0.004807647390608558 0.029419085383077068 -0.041288949613108354 0.002259356333396791 -36.6742326377222 0.0184928740805345 -0.03502914628122203 -0.030686876990916847 -0.04144698252195308 -0.011789499488821607 0.045630000495344644 -0.03289145594003277 0.02373930178877643 -19.780098459189716 0.019988202882525643 0.020718079099495957 -0.03710982873569396 -0.03136243083537996 -0.013505610575340781 -0.006047102334744125 0.002109942036225763 0.0025340193047463347 24.05502923700812 -0.0053500907271310195 0.03310034892100719 28.86686593329212 -0.03372500348289759 -0.014398213775725874 28.81753475565631 -0.02998382333275867 0.01036526563726706 2.1215774057349903 0.934073997292247 9.370331460757546 -65.77516600698631 14.078616373906446 -30.858100894602973 -87.711324801694 12.107090512866794 -121.5705576425109 -32.351448383469794 -6.118386817963003 3.8675485320575738 -0.4779528706799765 0.06850256062065693 -8.171819813271647 -0.011261069714214282 0.03142426280575671 44.529023850290834 0.015976577164700075 0.0075698114931884 44.5618769557855 12.43430844261099 0.0022283137451999365 0.0010547621730529453 -0.040787081594416914 -0.025167701634326203 0.021321952050198944 -0.030211342618758148 -0.030732648024034 9.798086522412623e-05 11.102050080174854 0.004912532739012353 0.03536182945980845 0.03334723625182332 0.04547403801484011 0.004468482446136951 -0.037998083288063145 0.005412276936537389 0.03579553457000251 4.805186721305659 0.028714991284115594 -0.0014862436166843626 0.0405799683948085 0.04505663612572414 -0.0005158481840668077 -0.03967433212325655 0.015799109376055914 -0.010827298705967147 -5.603866343144331 0.031234137635503104 -0.021840278677965206 -6.685835892681378 -0.010921201782975192 -0.0462583231338824 -6.686070334654542 0.005694535656042247 -0.02188029712254154 0.04335105202203364 -0.0031917926586440292 -0.015932181816360916 8.020395706665536 3.4834474918938674 -19.194613517080946 0.045943819033974265 10.426835893773777 -0.034504296065252696 -5.618111532902946 -15.695722425338282 3.156124671903455 -0.02103709275551473 0.04386176245855744 -0.04826907461299215 -0.024133095409417913 4.726160209612962 0.02757027157650554 12.424124235382799 -8.281489878001278 6.840149167946559 -0.0035876792516453086 46.36583828576849 0.005366362715569515 -4.336461032693515 -14.791289747885306 -3.8052968117140824 -0.029467149835648448 0.017760961369627248 -0.0036583303995225357 -0.03518290878311606 -10.701750191060626 0.04861023135870288 
0.001979549600135374 -0.010925341886125995 -0.04391220167161871 -0.03168789202536254 -0.007392738340811108 -0.04472690609885271 -3.6991170669841273 5.238503270103236 -0.62586082296442 -0.6462374264971777 3.2360545264618197 0.30562445940087424 -0.7067823348335709 -0.5981916225422365 -1.6098348952796604 -1.2108325478074848 0.11273265728099624 -0.9127651798146589 -1.7933562762254962 10.002660000001914 3.974404518512288 -0.29164469339518007 -1.2173570347050238 7.260223525234902 -1.351959695776339 -15.986232765012607 0.6651652037299487 3.2256803388891933 0.06964303431437605 -10.351187190610384 67.42253579646503 9.103550094130771 21.177466220667156 48.252946614905945 19.4094511327198 102.32578677018013 25.453701993569066 -0.03288110871978803 -11.12118723813379 4.573500611873973 -0.16988799181637082 -1.6172347713403001 -0.04508012134760616 0.016744525388568295 -56.238250086444374 -0.03385690950652292 -0.049297692988844455 -56.24053626757957 -38.76111957820802 0.0057239119968919405 0.032306880146608194 -0.016941130098107392 -0.025856177425153646 0.010298815315923098 -0.0003383043357885212 -0.001439184423061801 -0.032089882534874895 -36.71505976794852 -0.04159256190256954 0.004252520467965272 0.0066993688062744645 0.01626360494345491 -0.03428371459911218 -0.012114054070583618 0.03543028448798422 -0.006453143240221419 -19.758850812277174 -0.026624114315723903 -0.026538018894101505 -0.04568746548950284 -0.023528017835566833 0.031065968374787912 -0.016659766638577503 -0.03713843383236669 0.030813872947622535 24.064063739992225 -0.048569237097971035 -0.029978116109835324 28.87985084785138 -0.0194437166301788 0.01177218966751396 28.827089537739194 -0.03569348382759338 -0.019574226960470596 2.673774454516529 1.0127845586926578 9.50882885978369 -66.77837129435856 15.257152124837702 -30.47448259358062 -89.46038605035278 12.387919066520208 -122.32989316241571 -32.25611508585569 -6.732558798298614 4.531233652587423 -0.4784857604716138 0.06393283004300064 -8.084385781174928 -0.014664889745459445 0.004821102606402428 44.60131184525375 -0.002922689239963188 0.04173844203970866 44.60016727453692 12.428501073936571 0.031334580208211296 0.036348123369439045 -0.0019647601603712786 0.04395550100874854 0.0005941454167894336 -0.04844358293726461 -0.0318062981414932 0.03428877304118226 11.075771938106435 0.0021029640920525 0.00767484607747143 0.033065464898544956 -0.005086115807844151 -0.001291225105487688 0.04601284172140618 -0.03327693573321469 -0.019196992958699744 4.764597677987477 0.020501047502718618 0.029450374460292427 -0.016008494796052257 -0.023847115356003288 0.0307618000213217 0.017329893199969294 0.02189450168368925 -0.0004994077345452062 -5.591885874295755 0.007015623588452533 -0.037204650140665596 -6.680870577113413 0.0278245395131318 0.009629350170142931 -6.688470100637706 0.04116341560105748 -0.02879836847840615 -0.005478783169152817 0.04734596312763079 0.004045840827622756 8.006957133578652 3.5179211782596376 -19.247070673074507 -0.02407930253566926 10.369576046354883 0.03199917529158049 -5.625429371031501 -15.684024056118954 3.181125524713416 0.03436564068980544 0.01573414412601676 0.025372276229307423 -0.03585649448753393 4.667826018767369 -0.028970125933519778 12.505629222600025 -8.243036061719948 6.852099852020594 -0.015798676987361555 46.39303646180618 0.019234447197981116 -4.2993014058846 -14.71671944290834 -3.7960092580505673 0.04711082982047376 0.013734036904869972 -0.005488012726296512 0.03864098691780275 -10.767590194927365 0.003217917943701204 
0.005645398884696815 -0.029554174739141566 0.010667880840047687 -0.029449566911539538 -0.0007082407873658256 0.022644163738205728 -3.4005193048726925 4.846954050795654 -0.7333687090423953 -0.5611338315725456 3.275405990166934 0.3822663077049497 -0.6563449291428481 -0.7098143436640496 -1.5370139231774345 -1.1406210836492892 0.0303131978627984 -0.9522243178998521 -1.6903032763106902 10.22706173649073 3.7998531361206194 -0.264542786458162 -1.2582220064727279 7.0791754543700485 -1.2164548859612148 -16.1350435434418 0.6390941375010635 2.439372363506011 0.23532388892819556 -10.61694243133463 68.91255086592165 9.339466983944076 20.700430388657722 48.54590207614224 20.140078762599515 101.89000242031715 24.792613018056283 -0.026155384630121355 -11.002216495402955 4.48479343161142 -0.098324572202998 -1.6046476983722435 -0.012474963511518743 -0.0239860324034049 -56.21452772471145 -0.04596691117374532 -0.014837050170329753 -56.253835019200494 -38.77775489869413 -0.03614482484588087 0.00462589566336333 -0.015593965915831162 0.023419701512290135 -0.0012822773992851827 0.03316978038991362 -0.00526370801862795 -0.024086689292794367 -36.67659727883244 0.02654605650939399 -0.03979403722070221 0.006195686700127201 -0.017279670164730403 -0.024474728438433985 -0.0007249940478881128 0.04591229049090731 0.03491109440462265 -19.728460601518876 -0.037970763110480546 -0.010146734832842761 -0.011081241878954881 -0.011979706130281702 0.001740954769192084 -0.036799425729021285 0.03456579713050064 -0.013071505037935218 24.04125744272523 -0.002838135812748458 0.010566415419467706 28.829429458708553 0.017043100797122446 0.04781839218773726 28.81665881546407 0.0009520747420534544 0.0006063594783069068 3.2342667740205933 1.1453584346269 9.647033060412337 -67.97974219578329 16.200244386381108 -29.763677860891068 -90.51914196297275 12.981285882120288 -123.11884812102306 -32.324729022115434 -7.279219470524486 5.271951609153139 -0.4950865732246309 0.07385582133610823 -8.12408454477162 -0.0224094372061895 -0.023297149153287438 44.56170154204652 0.019085607497352292 0.04841467686444454 44.579715751687296 12.425702621448334 -0.024494705131418423 -0.02306096018311279 -0.01649093801800331 0.03517373753476038 0.020413225204668747 0.04025984410536317 0.044750666601541755 -0.015504340918238387 11.102905353828023 0.010063506592383207 0.018678717208123634 0.002934869119736322 -0.0381837673048895 -0.010993281982385542 -0.04648432899360049 0.027363108824539024 -0.01590866182457262 4.780509519353811 0.009600211208783722 -0.036030476810670904 -0.045496850383126945 -0.020780938316438444 0.011651215608956093 -0.0013985205217830212 0.03489347696861613 -0.03081008089608801 -5.588212331366431 -0.009626185715723316 0.005585809547364219 -6.706634217204245 0.024645216856899622 0.006543400423288812 -6.672170037630435 -0.00033315712221130986 0.02460258745930416 0.02844150230577146 -0.036727133688198375 -0.009917085529946275 8.074899498909078 3.44762631010933 -19.227103692823068 -0.04479893986750312 10.401672811183506 -0.011172276443599811 -5.649276152519807 -15.693994643117144 3.156171881571806 0.013908493307807336 -0.006348603254612838 0.03366246351091727 0.0003787365759315166 4.665953099233236 0.02315773422262322 12.422980509335934 -8.248377064883892 6.9204408468319425 -0.006766286348539091 46.38717129781294 0.05053316042798738 -4.365668150113473 -14.784910796579092 -3.8127893629443896 0.010146036894910105 -0.007768204611309368 0.01883708964436229 -0.018649684733812642 -10.702769896176674 0.04454332133018421 
